<?xml version="1.0" standalone="no"?>
<!DOCTYPE svg PUBLIC "-//W3C//DTD SVG 20010904//EN"
 "http://www.w3.org/TR/2001/REC-SVG-20010904/DTD/svg10.dtd">
<svg version="1.0" xmlns="http://www.w3.org/2000/svg"
 width="3840.000000pt" height="2160.000000pt" viewBox="0 0 3840.000000 2160.000000"
 preserveAspectRatio="xMidYMid meet">

<g transform="translate(0.000000,2160.000000) scale(0.100000,-0.100000)"
fill="#000000" stroke="none">
<path d="M20217 13473 c-2 -6614 -4 -7055 -20 -7163 -105 -701 -371 -1242
-842 -1716 -451 -453 -1013 -735 -1665 -835 -192 -30 -597 -32 -789 -6 -478
67 -895 227 -1286 495 -341 233 -648 560 -862 917 -199 330 -330 706 -390
1110 -25 170 -25 611 0 780 92 618 339 1144 746 1593 461 507 1112 847 1786
931 162 20 214 23 395 23 272 -1 548 -38 783 -107 48 -14 89 -25 92 -25 3 0 5
796 5 1769 0 1677 -1 1770 -17 1775 -26 8 -280 34 -413 43 -218 15 -849 8
-1040 -10 -1358 -135 -2577 -651 -3595 -1523 -192 -164 -525 -497 -689 -689
-798 -932 -1306 -2050 -1480 -3255 -75 -517 -86 -1094 -30 -1615 134 -1256
644 -2451 1460 -3425 1150 -1371 2800 -2195 4587 -2290 164 -8 644 -5 772 5
620 52 1105 150 1647 335 273 92 476 178 763 319 489 242 918 525 1330 876
192 164 536 508 700 700 820 962 1336 2127 1490 3365 51 409 49 227 55 4171
l5 3717 170 -115 c499 -336 996 -601 1545 -823 931 -376 1971 -589 2938 -599
l182 -2 0 1731 0 1730 -22 1 c-13 1 -52 3 -88 4 -302 14 -407 23 -630 56
-1062 159 -2064 687 -2804 1478 -707 756 -1150 1693 -1280 2709 -11 83 -16
204 -16 368 l0 244 -1745 0 -1745 0 -3 -7047z"/>
</g>
</svg>
